<?xml version="1.0" standalone="no"?>
<!DOCTYPE svg PUBLIC "-//W3C//DTD SVG 20010904//EN"
 "http://www.w3.org/TR/2001/REC-SVG-20010904/DTD/svg10.dtd">
<svg version="1.0" xmlns="http://www.w3.org/2000/svg"
 width="512.000000pt" height="512.000000pt" viewBox="0 0 512.000000 512.000000"
 preserveAspectRatio="xMidYMid meet">
<metadata>
Created by potrace 1.11, written by Peter Selinger 2001-2013
</metadata>
<g transform="translate(0.000000,512.000000) scale(0.100000,-0.100000)"
fill="#000000" stroke="none">
<path d="M150 2650 l0 -1340 303 2 302 3 5 742 c3 408 8 744 11 748 4 3 11 -7
17 -22 5 -15 19 -37 30 -49 11 -12 22 -30 24 -40 2 -10 13 -23 25 -29 13 -5
27 -22 32 -37 6 -16 17 -31 25 -34 8 -3 18 -19 21 -35 4 -16 17 -37 29 -47 13
-10 26 -28 30 -40 4 -12 16 -26 26 -32 10 -5 21 -22 25 -37 3 -16 17 -37 30
-49 13 -11 29 -33 34 -47 6 -15 17 -27 26 -27 8 0 18 -12 21 -27 4 -16 18 -38
31 -50 12 -12 23 -29 23 -37 0 -8 11 -23 25 -34 13 -11 29 -31 35 -46 5 -14
16 -26 24 -26 8 0 17 -14 21 -30 4 -17 15 -34 25 -40 9 -5 25 -26 35 -46 9
-20 26 -39 36 -41 10 -3 19 -14 19 -24 0 -11 11 -29 25 -41 14 -12 25 -29 25
-38 0 -10 13 -28 28 -41 16 -13 32 -36 36 -51 4 -19 13 -28 26 -28 14 0 21 -9
26 -35 3 -20 12 -35 20 -35 8 0 18 -10 23 -23 5 -12 23 -38 40 -56 17 -18 31
-41 31 -50 0 -10 11 -23 25 -29 16 -7 25 -20 25 -34 0 -13 9 -29 20 -36 11 -7
20 -17 20 -23 0 -5 9 -20 21 -32 20 -22 23 -22 334 -22 244 0 317 3 327 13 11
11 13 266 14 1343 l0 1329 -340 -2 -341 -3 -2 -695 c-1 -382 -3 -704 -3 -714
0 -20 0 -20 -18 0 -10 10 -21 27 -25 37 -3 9 -11 17 -16 17 -5 0 -14 14 -20
30 -5 17 -17 30 -26 30 -9 0 -18 12 -22 31 -3 17 -12 33 -20 36 -8 3 -23 23
-33 44 -11 20 -29 40 -40 44 -13 4 -20 15 -20 30 0 15 -10 31 -25 41 -14 9
-25 25 -25 35 0 10 -6 22 -14 26 -7 4 -25 27 -40 51 -14 23 -33 42 -41 42 -9
0 -15 10 -15 25 0 15 -9 31 -25 41 -14 9 -25 25 -25 36 0 12 -15 35 -33 52
-18 17 -36 39 -40 49 -3 9 -13 17 -21 17 -8 0 -17 13 -21 29 -3 16 -13 36 -22
43 -9 7 -22 28 -30 47 -8 18 -23 35 -33 38 -10 3 -22 17 -25 33 -3 15 -17 33
-30 40 -15 8 -25 22 -25 36 0 12 -11 31 -25 42 -13 11 -29 31 -35 46 -5 14
-16 26 -25 26 -8 0 -18 12 -21 28 -8 32 -23 54 -34 47 -4 -2 -13 14 -20 36 -9
25 -22 44 -36 49 -13 5 -25 21 -29 38 -3 18 -14 32 -26 35 -12 3 -19 14 -19
30 0 57 -3 57 -351 57 l-319 0 0 -1340z"/>
<path d="M2570 3716 c0 -209 3 -277 13 -283 6 -4 199 -9 427 -10 228 -2 419
-3 424 -3 5 0 6 -43 2 -102 -7 -85 -19 -547 -17 -598 1 -8 0 -130 0 -270 -2
-294 -2 -307 -2 -340 1 -14 2 -137 3 -275 2 -258 3 -280 16 -427 l7 -88 313 0
314 0 0 1044 c0 682 3 1047 10 1051 5 3 196 7 422 8 227 1 419 6 426 10 9 6
12 74 12 283 l0 274 -1185 0 -1185 0 0 -274z"/>
</g>
</svg>
